<svg width="16" height="16" viewBox="0 0 16 16" fill="none" xmlns="http://www.w3.org/2000/svg">
<path d="M13.7932 6.73577H3.84792L6.89188 3.07965C7.03422 2.90841 7.10269 2.68763 7.08225 2.46589C7.06181 2.24416 6.95412 2.03962 6.78287 1.89729C6.61162 1.75495 6.39084 1.68647 6.16911 1.70692C5.94737 1.72736 5.74284 1.83505 5.6005 2.0063L1.40771 7.03765C1.3795 7.07767 1.35428 7.11971 1.33224 7.16343C1.33224 7.20536 1.33224 7.23052 1.27354 7.27244C1.23553 7.36859 1.21563 7.47094 1.21484 7.57432C1.21563 7.67771 1.23553 7.78006 1.27354 7.8762C1.27354 7.91813 1.27354 7.94329 1.33224 7.98522C1.35428 8.02894 1.3795 8.07098 1.40771 8.111L5.6005 13.1423C5.67934 13.237 5.77808 13.3131 5.88967 13.3653C6.00127 13.4175 6.123 13.4444 6.24619 13.4442C6.44212 13.4446 6.632 13.3764 6.78287 13.2514C6.86778 13.181 6.93797 13.0945 6.98941 12.9969C7.04086 12.8994 7.07256 12.7926 7.08268 12.6828C7.09281 12.573 7.08117 12.4622 7.04843 12.3569C7.01569 12.2516 6.96249 12.1537 6.89188 12.069L3.84792 8.41288H13.7932C14.0156 8.41288 14.2289 8.32453 14.3862 8.16727C14.5434 8.01001 14.6318 7.79672 14.6318 7.57432C14.6318 7.35192 14.5434 7.13863 14.3862 6.98137C14.2289 6.82411 14.0156 6.73577 13.7932 6.73577Z" fill="white"/>
</svg>
