<svg width="21" height="21" viewBox="0 0 21 21" fill="none" xmlns="http://www.w3.org/2000/svg">
<path d="M19.5691 2.28456H15.3691V0.684558C15.3691 0.574558 15.2791 0.484558 15.1691 0.484558H13.7691C13.6591 0.484558 13.5691 0.574558 13.5691 0.684558V2.28456H7.16914V0.684558C7.16914 0.574558 7.07914 0.484558 6.96914 0.484558H5.56914C5.45914 0.484558 5.36914 0.574558 5.36914 0.684558V2.28456H1.16914C0.726641 2.28456 0.369141 2.64206 0.369141 3.08456V19.6846C0.369141 20.1271 0.726641 20.4846 1.16914 20.4846H19.5691C20.0116 20.4846 20.3691 20.1271 20.3691 19.6846V3.08456C20.3691 2.64206 20.0116 2.28456 19.5691 2.28456ZM18.5691 18.6846H2.16914V9.18456H18.5691V18.6846ZM2.16914 7.48456V4.08456H5.36914V5.28456C5.36914 5.39456 5.45914 5.48456 5.56914 5.48456H6.96914C7.07914 5.48456 7.16914 5.39456 7.16914 5.28456V4.08456H13.5691V5.28456C13.5691 5.39456 13.6591 5.48456 13.7691 5.48456H15.1691C15.2791 5.48456 15.3691 5.39456 15.3691 5.28456V4.08456H18.5691V7.48456H2.16914Z" fill="black"/>
</svg>
