<svg width="21" height="19" viewBox="0 0 21 19" fill="none" xmlns="http://www.w3.org/2000/svg">
<path d="M3.70576 0.655911C3.61266 0.562807 3.50213 0.488953 3.38048 0.438565C3.25883 0.388178 3.12845 0.362244 2.99678 0.362244C2.86512 0.362244 2.73474 0.388178 2.61309 0.438565C2.49144 0.488953 2.38091 0.562807 2.28781 0.655911C2.09978 0.843944 1.99414 1.09897 1.99414 1.36489C1.99414 1.63081 2.09978 1.88583 2.28781 2.07386L7.90969 7.69575C7.55401 8.35741 7.42098 9.11607 7.53033 9.85927C7.63967 10.6025 7.98557 11.2907 8.51675 11.8219C9.04794 12.353 9.73613 12.6989 10.4793 12.8083C11.2225 12.9176 11.9812 12.7846 12.6429 12.4289L18.2647 18.0508C18.3576 18.1444 18.468 18.2187 18.5897 18.2694C18.7114 18.3201 18.8419 18.3462 18.9737 18.3462C19.1055 18.3462 19.2361 18.3201 19.3577 18.2694C19.4794 18.2187 19.5899 18.1444 19.6827 18.0508C19.7763 17.958 19.8506 17.8475 19.9013 17.7258C19.952 17.6042 19.9781 17.4736 19.9781 17.3418C19.9781 17.21 19.952 17.0795 19.9013 16.9578C19.8506 16.8361 19.7763 16.7257 19.6827 16.6328L3.70576 0.655911ZM10.9853 10.8512C10.588 10.8512 10.207 10.6934 9.92612 10.4125C9.64522 10.1316 9.48742 9.75061 9.48742 9.35336V9.28346L11.0452 10.8412L10.9853 10.8512Z" fill="black"/>
<path d="M11.2053 14.3462C6.91153 14.446 4.09559 10.7613 3.21686 9.35336C3.84243 8.35549 4.59424 7.44258 5.45363 6.63728L3.99574 5.22931C2.86869 6.29125 1.90317 7.51245 1.12988 8.85408C1.04223 9.00588 0.996094 9.17808 0.996094 9.35336C0.996094 9.52864 1.04223 9.70084 1.12988 9.85264C1.75897 10.9411 5.12411 16.3433 11.0056 16.3433H11.2553C12.3612 16.3105 13.4528 16.084 14.4806 15.6742L12.9029 14.0965C12.348 14.2425 11.7787 14.3262 11.2053 14.3462ZM20.8414 8.85408C20.2023 7.74568 16.6774 2.18371 10.716 2.36345C9.61009 2.39626 8.51845 2.6227 7.49069 3.03249L9.06842 4.61021C9.62325 4.46425 10.1926 4.38052 10.766 4.36057C15.0498 4.25073 17.8657 7.94539 18.7544 9.35336C18.1134 10.3542 17.3447 11.2673 16.4677 12.0694L17.9756 13.4774C19.1168 12.4183 20.0958 11.1969 20.8814 9.85264C20.963 9.69736 21.0023 9.52331 20.9953 9.34801C20.9883 9.17271 20.9352 9.00235 20.8414 8.85408V8.85408Z" fill="black"/>
</svg>
