<svg width="21" height="15" viewBox="0 0 21 15" fill="none" xmlns="http://www.w3.org/2000/svg">
<path d="M20.0751 6.86374C19.4353 5.75418 15.9167 0.186396 9.93909 0.366325C4.41129 0.506269 1.21256 5.36434 0.342906 6.86374C0.255172 7.0157 0.208984 7.18808 0.208984 7.36354C0.208984 7.53901 0.255172 7.71139 0.342906 7.86334C0.972655 8.95291 4.34132 14.3608 10.229 14.3608H10.4789C16.0067 14.2208 19.2154 9.36275 20.0751 7.86334C20.1628 7.71139 20.209 7.53901 20.209 7.36354C20.209 7.18808 20.1628 7.0157 20.0751 6.86374V6.86374ZM10.4289 12.3616C6.12061 12.4615 3.31173 8.77298 2.43207 7.36354C3.43168 5.75418 6.04064 2.46549 10.0391 2.36553C14.3273 2.25557 17.1462 5.9541 18.0359 7.36354C17.0063 8.9729 14.4273 12.2616 10.4289 12.3616V12.3616Z" fill="black"/>
<path d="M10.2095 3.86493C9.51759 3.86493 8.84117 4.07012 8.26583 4.45455C7.69048 4.83898 7.24206 5.38539 6.97725 6.02468C6.71245 6.66397 6.64317 7.36742 6.77816 8.04608C6.91316 8.72475 7.24637 9.34814 7.73566 9.83743C8.22495 10.3267 8.84834 10.6599 9.527 10.7949C10.2057 10.9299 10.9091 10.8606 11.5484 10.5958C12.1877 10.331 12.7341 9.88261 13.1185 9.30726C13.503 8.73192 13.7082 8.0555 13.7082 7.36354C13.7082 6.43565 13.3396 5.54576 12.6834 4.88965C12.0273 4.23353 11.1374 3.86493 10.2095 3.86493V3.86493ZM10.2095 8.86294C9.91299 8.86294 9.6231 8.775 9.37652 8.61025C9.12995 8.44549 8.93777 8.21132 8.82428 7.93734C8.71079 7.66336 8.6811 7.36187 8.73896 7.07102C8.79681 6.78016 8.93961 6.513 9.14931 6.3033C9.35901 6.0936 9.62617 5.9508 9.91703 5.89295C10.2079 5.83509 10.5094 5.86478 10.7833 5.97827C11.0573 6.09176 11.2915 6.28394 11.4563 6.53051C11.621 6.77709 11.709 7.06698 11.709 7.36354C11.709 7.76121 11.551 8.14258 11.2698 8.42378C10.9886 8.70497 10.6072 8.86294 10.2095 8.86294Z" fill="black"/>
</svg>
