<svg width="11" height="12" viewBox="0 0 11 12" fill="none" xmlns="http://www.w3.org/2000/svg">
<path d="M9.71843 9.32443H9.38452V11.3243L7.38109 9.32443H3.04031C2.67162 9.32443 2.38641 9.16471 2.18468 8.84529L3.70812 7.32453H7.71499C8.17411 7.32453 8.56715 7.16134 8.8941 6.83497C9.22105 6.5086 9.38452 6.11626 9.38452 5.65795V3.32473H9.71843C9.99668 3.32473 10.2332 3.42195 10.428 3.61639C10.6228 3.81082 10.7201 4.04692 10.7201 4.32468V8.32448C10.7201 8.60224 10.6228 8.83834 10.428 9.03278C10.2332 9.22721 9.99668 9.32443 9.71843 9.32443ZM7.71499 6.6579H3.37422L1.37078 8.65779V6.6579H1.03687C0.758619 6.6579 0.522102 6.56068 0.327324 6.36625C0.132545 6.17181 0.0351562 5.93571 0.0351562 5.65795V1.65815C0.0351562 1.38039 0.132545 1.14429 0.327324 0.949855C0.522102 0.75542 0.758619 0.658203 1.03687 0.658203H7.71499C7.99325 0.658203 8.22976 0.75542 8.42454 0.949855C8.61932 1.14429 8.71671 1.38039 8.71671 1.65815V5.65795C8.71671 5.93571 8.61932 6.17181 8.42454 6.36625C8.22976 6.56068 7.99325 6.6579 7.71499 6.6579Z" fill="#D5D5D5"/>
</svg>
