<svg width="16" height="16" viewBox="0 0 16 16" fill="none" xmlns="http://www.w3.org/2000/svg">
<path d="M7.76038 1.88251C7.13002 1.88251 6.5138 2.06943 5.98967 2.41965C5.46554 2.76986 5.05703 3.26763 4.8158 3.85001C4.57457 4.4324 4.51145 5.07323 4.63443 5.69149C4.75741 6.30974 5.06096 6.87765 5.5067 7.32338C5.95243 7.76912 6.52034 8.07267 7.13859 8.19565C7.75685 8.31863 8.39768 8.25551 8.98007 8.01428C9.56245 7.77305 10.0602 7.36454 10.4104 6.84041C10.7606 6.31628 10.9476 5.70007 10.9476 5.0697C10.9476 4.2244 10.6118 3.41373 10.0141 2.81601C9.41635 2.2183 8.60568 1.88251 7.76038 1.88251V1.88251ZM7.76038 6.98201C7.38216 6.98201 7.01244 6.86986 6.69796 6.65973C6.38348 6.4496 6.13837 6.15094 5.99363 5.80151C5.84889 5.45208 5.81102 5.06758 5.88481 4.69662C5.9586 4.32567 6.14073 3.98493 6.40817 3.71749C6.67561 3.45005 7.01636 3.26792 7.38731 3.19413C7.75826 3.12034 8.14276 3.15821 8.49219 3.30295C8.84162 3.44769 9.14029 3.69279 9.35041 4.00727C9.56054 4.32175 9.6727 4.69148 9.6727 5.0697C9.6727 5.57688 9.47122 6.06328 9.11259 6.42191C8.75396 6.78054 8.26756 6.98201 7.76038 6.98201V6.98201ZM13.4973 13.9938V13.3564C13.4973 12.173 13.0272 11.038 12.1904 10.2012C11.3536 9.36444 10.2187 8.89433 9.03526 8.89433H6.48551C5.30209 8.89433 4.16715 9.36444 3.33035 10.2012C2.49355 11.038 2.02344 12.173 2.02344 13.3564V13.9938H3.29831V13.3564C3.29831 12.5111 3.63411 11.7004 4.23182 11.1027C4.82954 10.505 5.64021 10.1692 6.48551 10.1692H9.03526C9.88055 10.1692 10.6912 10.505 11.2889 11.1027C11.8867 11.7004 12.2225 12.5111 12.2225 13.3564V13.9938H13.4973Z" fill="white"/>
</svg>
