<svg width="17" height="17" viewBox="0 0 17 17" fill="none" xmlns="http://www.w3.org/2000/svg">
<path d="M7.16458 4.47394C7.18811 4.46358 7.21386 4.4593 7.23947 4.4615C7.26508 4.46369 7.28973 4.47229 7.31115 4.4865C7.33257 4.50071 7.35008 4.52008 7.36206 4.54282C7.37404 4.56556 7.38011 4.59095 7.37972 4.61665V5.84463C7.37972 5.98586 7.43582 6.12131 7.53569 6.22117C7.63555 6.32104 7.771 6.37714 7.91223 6.37714C8.62261 6.37714 10.0561 6.38247 11.4268 7.2526C12.4748 7.91718 13.5462 9.12705 14.1906 11.3807C13.1043 10.3337 11.8635 9.76607 10.7772 9.46466C10.1094 9.28024 9.42322 9.17093 8.73124 9.13876C8.448 9.12632 8.16429 9.12917 7.88135 9.14729H7.8675L7.86218 9.14835H7.86111L7.91223 9.67873L7.85898 9.14835C7.72754 9.16156 7.6057 9.22316 7.51713 9.32117C7.42856 9.41919 7.37958 9.54663 7.37972 9.67873V10.9067C7.37972 11.0217 7.26257 11.0942 7.16458 11.0494L2.9215 7.9257C2.9071 7.91501 2.89217 7.90506 2.87677 7.89588C2.85362 7.88196 2.83445 7.86229 2.82115 7.83877C2.80785 7.81526 2.80085 7.7887 2.80085 7.76168C2.80085 7.73467 2.80785 7.70811 2.82115 7.68459C2.83445 7.66108 2.85362 7.6414 2.87677 7.62749C2.89218 7.61831 2.90711 7.60836 2.9215 7.59767L7.16458 4.47394ZM8.44475 10.1963C8.51717 10.1963 8.59705 10.1995 8.68225 10.2027C9.14447 10.224 9.78349 10.2943 10.4928 10.4914C11.905 10.8833 13.5771 11.7715 14.689 13.7716C14.7491 13.8796 14.845 13.9633 14.96 14.0084C15.0751 14.0534 15.2022 14.0571 15.3197 14.0187C15.4372 13.9803 15.5376 13.9022 15.6038 13.7979C15.6701 13.6936 15.6979 13.5694 15.6827 13.4468C15.1885 9.49555 13.674 7.41661 11.9977 6.35371C10.6717 5.51234 9.30636 5.35046 8.44475 5.31957V4.61665C8.44485 4.39733 8.38574 4.18204 8.27367 3.99352C8.1616 3.80499 8.00072 3.65021 7.808 3.54551C7.61528 3.4408 7.39788 3.39006 7.17872 3.39864C6.95957 3.40721 6.74679 3.47478 6.56284 3.59422L2.30911 6.72541C2.13326 6.83518 1.98823 6.9879 1.88768 7.16919C1.78713 7.35048 1.73438 7.55438 1.73438 7.76168C1.73437 7.96899 1.78713 8.17288 1.88768 8.35417C1.98823 8.53546 2.13326 8.68818 2.30911 8.79796L6.56284 11.9291C6.74679 12.0486 6.95957 12.1162 7.17872 12.1247C7.39788 12.1333 7.61528 12.0826 7.808 11.9779C8.00072 11.8732 8.1616 11.7184 8.27367 11.5298C8.38574 11.3413 8.44485 11.126 8.44475 10.9067V10.1963V10.1963Z" fill="white"/>
</svg>
